<?xml version="1.0" encoding="UTF-8"?>
<svg xmlns="http://www.w3.org/2000/svg" viewBox="0 0 64 64" role="img" aria-label="Ferry route icon">
  <defs>
    <filter id="shadow" x="-50%" y="-50%" width="200%" height="200%">
      <feOffset dy="0.5" result="offset"/>
      <feGaussianBlur in="offset" stdDeviation="0.6" result="blur"/>
      <feColorMatrix in="blur" type="matrix" values="0 0 0 0 0   0 0 0 0 0   0 0 0 0 0   0 0 0 0.25 0" result="shadow"/>
      <feBlend in="SourceGraphic" in2="shadow" mode="normal"/>
    </filter>
    <clipPath id="rounded">
      <rect x="2" y="2" width="60" height="60" rx="12" ry="12"/>
    </clipPath>
  </defs>

  <!-- Background shape -->
  <g clip-path="url(#rounded)">
    <rect x="2" y="2" width="60" height="60" fill="white"/>

    <!-- Stylized ferry and route mark -->
    <g filter="url(#shadow)" fill="#181c56">
      <!-- Route dot -->
      <circle cx="16" cy="18" r="4"/>
      <!-- Route path (dashed) -->
      <path d="M20 18 C 30 18, 36 22, 40 28 S 50 40, 56 42"
            fill="none" stroke="#181c56" stroke-width="3"
            stroke-linecap="round" stroke-dasharray="2 4"/>

      <!-- Ferry hull -->
      <path d="M14 36 h22 l4 6 h-30 z"/>
      <!-- Superstructure -->
      <rect x="20" y="28" width="12" height="6" rx="1"/>
      <rect x="23" y="24" width="6" height="4" rx="1"/>
      <!-- Chimney -->
      <rect x="25.5" y="20" width="3" height="4" rx="0.5"/>

      <!-- Waves -->
      <path d="M10 46 q3 3 6 0 t6 0 t6 0 t6 0 t6 0"
            fill="none" stroke="#181c56" stroke-width="2" stroke-linecap="round"/>
      <path d="M12 50 q3 3 6 0 t6 0 t6 0 t6 0 t6 0"
            fill="none" stroke="#181c56" stroke-width="2" stroke-linecap="round" opacity="0.75"/>
    </g>
  </g>
</svg>
